Coordinates
version=1
nRows=12
nColumns=24
inDegrees=yes

Units are S.I. units (second, meters, Newtons, ...)
Angles are in degrees.

endheader
time	pelvis_tilt	pelvis_list	pelvis_rotation	pelvis_tx	pelvis_ty	pelvis_tz	hip_flexion_r	hip_adduction_r	hip_rotation_r	knee_angle_r	ankle_angle_r	subtalar_angle_r	mtp_angle_r	hip_flexion_l	hip_adduction_l	hip_rotation_l	knee_angle_l	ankle_angle_l	subtalar_angle_l	mtp_angle_l	lumbar_extension	lumbar_bending	lumbar_rotation
      3.60500000	      6.03092510	      1.11698749	     -4.39614794	      0.83002171	      1.00922119	      0.04315268	    -16.88042118	     -4.80747044	     -3.72773767	    -29.60177218	      3.15026601	      6.89409224	     41.18763257	      9.89846766	      1.54610661	    -10.69937516	     -5.90530593	     -7.66669014	      0.93783905	     18.21776106	    -16.59230264	     -0.46014597	      3.48329603
      3.61000000	      5.96437765	      1.32956772	     -4.36434241	      0.83540340	      1.01007124	      0.04225072	    -15.98676578	     -5.19378839	     -3.89396400	    -31.31831088	      2.20929891	      6.72360380	     41.21737804	      9.61047516	      1.85499248	    -10.54397268	     -5.83458303	     -7.36035872	      0.99806919	     17.03618204	    -16.50220985	     -0.67343304	      3.43435094
      3.61500000	      6.01853565	      1.56363345	     -4.40839285	      0.84079428	      1.01107215	      0.04145690	    -15.20945783	     -5.62918805	     -3.96392785	    -33.00415556	      1.26617057	      6.51161869	     41.11123966	      9.14616624	      2.19124655	    -10.52151791	     -5.67582689	     -7.21793060	      1.00328761	     16.91329456	    -16.54011674	     -0.93665909	      3.44373370
      3.62000000	      5.93005927	      1.74027544	     -4.42784127	      0.84601963	      1.01182916	      0.04060262	    -14.22754207	     -5.98696109	     -4.00438636	    -34.75214509	      0.41150958	      6.32022468	     40.04355806	      8.86202706	      2.45680835	    -10.44708433	     -5.57062301	     -6.78728167	      1.12130724	     14.82264103	    -16.43771486	     -1.11374035	      3.46190452
      3.62500000	      5.89269834	      1.93667419	     -4.47764693	      0.85125441	      1.01261266	      0.03981327	    -13.29541116	     -6.36709461	     -4.00616414	    -36.45932549	     -0.48641463	      5.92753964	     39.83568434	      8.48733592	      2.74507956	    -10.44790998	     -5.37679512	     -6.66997200	      1.16576292	     14.73566195	    -16.38447967	     -1.32432847	      3.50033143
      3.63000000	      5.75621361	      2.09274918	     -4.50136722	      0.85631322	      1.01323398	      0.03898003	    -12.22093957	     -6.67728072	     -3.94271077	    -38.20023626	     -1.21558818	      5.68533479	     37.61852827	      8.25447755	      2.98291641	    -10.39380657	     -5.24715491	     -6.32894772	      1.25027341	     13.14868916	    -16.24059354	     -1.47437138	      3.49566979
      3.63500000	      5.60235848	      2.24218912	     -4.54917323	      0.86134254	      1.01378226	      0.03822072	    -11.11745091	     -6.96791828	     -3.83402779	    -39.89800294	     -2.02859133	      5.19398161	     36.96442153	      8.02670799	      3.20135237	    -10.42572977	     -5.08191750	     -6.14845082	      1.42121312	     12.89227147	    -16.07690502	     -1.62289376	      3.51775975
      3.64000000	      5.51915265	      2.40327104	     -4.62761881	      0.86633776	      1.01439915	      0.03748872	    -10.07836064	     -7.27395327	     -3.68679855	    -41.58439284	     -2.57433534	      4.81697598	     34.17385666	      7.70099006	      3.44547102	    -10.47624369	     -4.87524175	     -5.88556122	      1.48913661	     11.57052077	    -15.98907120	     -1.79326462	      3.56553783
      3.64500000	      5.46891225	      2.54251147	     -4.72265433	      0.87130852	      1.01503784	      0.03685191	     -9.08681905	     -7.53139406	     -3.48601464	    -43.17894310	     -3.27296570	      4.12645381	     33.85942132	      7.32052843	      3.65914686	    -10.58486011	     -4.62544749	     -5.76634151	      1.65991785	     11.50398222	    -15.93902675	     -1.95031581	      3.63983981
      3.65000000	      5.28402247	      2.67078330	     -4.77999316	      0.87609715	      1.01544074	      0.03612167	     -7.90888741	     -7.75697604	     -3.28086157	    -44.82974893	     -3.59373541	      3.78163417	     30.32476587	      7.13688724	      3.85437887	    -10.62582030	     -4.46290446	     -5.45540005	      1.78286689	     10.02450826	    -15.75867151	     -2.06894667	      3.64402348
      3.65500000	      5.13148383	      2.78505945	     -4.87667285	      0.88092097	      1.01587447	      0.03555071	     -6.78299397	     -7.94051060	     -3.00983616	    -46.37293275	     -4.08958205	      3.09997707	     29.67371221	      6.89844253	      4.02041447	    -10.80580988	     -4.26904911	     -5.25592296	      2.10154482	      9.88454752	    -15.60630583	     -2.19240980	      3.67522236
      3.66000000	      5.02641147	      2.90032046	     -4.96835939	      0.88567103	      1.01635415	      0.03493881	     -5.70485412	     -8.12199344	     -2.74666355	    -47.89519624	     -4.21601601	      2.61578327	     26.38927618	      6.59593276	      4.20751594	    -10.88753624	     -4.03636479	     -5.03410055	      2.18925752	      8.69837535	    -15.51280012	     -2.31300470	      3.72537485
